# generated from PmQm by Jehee Lee
:FULLY-SPECIFIED
:DEGREES
92
root 3.63825 24.4588 -15.9597 149.301 7.24803 -177.284
RightUpLeg -45.8434 3.29902 0.005641240002
RightLeg 78.897 1.93065 10.2053
RightFoot -9.46997 -0.32125 15.6427
RightToes -0.000541893 -0.000659172 -0.000493268
Spine 12.4404 -0.0659228 2.6617
Spine1 25.0581 -0.503303 4.03734
HEad -1.25167 -25.787 1.18756
LeftShoulder1 -3.88251e-019 -0 -3.92111e-022
LeftArm -34.299 -0.907128 -85.1182
LeftForeArm 25.1261 2.07478 2.41559
LeftHand -1.10353 -4.40548 13.3199
RightShoulder 7.45443e-017 -2.42657e-020 1.96277e-018
RightArm -23.1015 -1.74848 72.8518
RightForeArm 13.1842 2.14015 6.96032
RightHand -1.73291 12.1662 -11.8056
LeftUpLeg -45.3746 -6.90072 5.81393
LeftLeg 83.9858 -0.331259 -0.837459
LeftFoot -11.5274 0.0631778 -4.04331
LeftToes 3.91355e-005 3.11907e-005 -4.10385e-006
93
root 3.64864 24.4713 -15.974 149.372 7.22951 -177.35
RightUpLeg -45.8981 3.09864 -0.008282610007
RightLeg 78.814 1.95763 10.2761
RightFoot -9.0472 -0.367381 15.1788
RightToes -0.000541893 -0.000659172 -0.000493268
Spine 12.5043 -0.0259884 2.54682
Spine1 25.1927 -0.435642 3.98643
HEad -2.37255 -26.3181 2.14743
LeftShoulder1 -3.88251e-019 -0 -3.92111e-022
LeftArm -34.3946 -0.620932 -85.124
LeftForeArm 24.7271 2.08271 2.45593
LeftHand -1.12403 -4.41184 13.5511
RightShoulder 7.45443e-017 -2.42657e-020 1.96277e-018
RightArm -23.3065 -1.95449 73.0995
RightForeArm 13.9394 1.79545 6.52074
RightHand -1.73203 12.1495 -11.8109
LeftUpLeg -45.6338 -7.09992 6.52916
LeftLeg 82.7721 -0.405519 -1.44299
LeftFoot -10.4051 0.108253 -5.53657
LeftToes 3.91355e-005 3.11907e-005 -4.10385e-006
94
root 3.64332 24.4832 -16.0035 149.531 7.27428 -177.344
RightUpLeg -46.0135 3.00079 0.0337788
RightLeg 78.8404 1.96371 10.3431
RightFoot -9.12133 -0.350403 14.7903
RightToes -0.000541893 -0.000659172 -0.000493268
Spine 12.592 -0.0378463 2.51423
Spine1 25.3719 -0.476832 4.04138
HEad -3.53233 -26.6251 2.69608
LeftShoulder1 -3.88251e-019 -0 -3.92111e-022
LeftArm -34.4429 -0.542986 -85.067
LeftForeArm 24.2707 2.0925 2.4578
LeftHand -1.16496 -4.54931 13.8444
RightShoulder 7.45443e-017 -2.42657e-020 1.96277e-018
RightArm -23.6341 -1.75392 73.3625
RightForeArm 14.575 0.811347 5.97278
RightHand -1.66381 12.1517 -11.3638
LeftUpLeg -45.847 -7.07174 7.01821
LeftLeg 82.0673 -0.486837 -2.05322
LeftFoot -9.89222 0.143226 -6.63834
LeftToes 3.91355e-005 3.11907e-005 -4.10385e-006
95
root 3.62723 24.4966 -16.045 149.744 7.21913 -177.206
RightUpLeg -46.1228 2.85494 0.127663
RightLeg 78.8783 1.94405 10.2671
RightFoot -9.33671 -0.320083 14.5762
RightToes -0.000541893 -0.000659172 -0.000493268
Spine 12.6336 -0.106811 2.56459
Spine1 25.4548 -0.631942 4.15427
HEad -4.53445 -27.0081 3.07975
LeftShoulder1 -3.88251e-019 -0 -3.92111e-022
LeftArm -34.3958 -0.296449 -85.0053
LeftForeArm 24.2989 2.09394 2.39972
LeftHand -1.15037 -4.63175 13.569
RightShoulder 7.45443e-017 -2.42657e-020 1.96277e-018
RightArm -23.853 -1.69924 73.5169
RightForeArm 14.5862 -0.25761 5.65268
RightHand -1.58742 12.2144 -10.8283
LeftUpLeg -46.0584 -6.77099 7.14498
LeftLeg 82.0085 -0.531774 -2.46186
LeftFoot -9.80778 0.145092 -6.44877
LeftToes 3.91355e-005 3.11907e-005 -4.10385e-006
96
root 3.62045 24.5311 -16.0799 150.144 7.07732 -176.947
RightUpLeg -46.3608 2.59479 0.322455
RightLeg 78.8011 1.93355 10.1192
RightFoot -9.39775 -0.305185 14.1426
RightToes -0.000541893 -0.000659172 -0.000493268
Spine 12.5756 -0.175808 2.66004
Spine1 25.3384 -0.792384 4.33062
HEad -5.38263 -27.6355 3.56328
LeftShoulder1 -3.88251e-019 -0 -3.92111e-022
LeftArm -34.4097 0.0443699 -84.918
LeftForeArm 24.9013 2.08334 2.34488
LeftHand -1.06635 -4.65948 12.5732
RightShoulder 7.45443e-017 -2.42657e-020 1.96277e-018
RightArm -24.0181 -2.29579 73.864
RightForeArm 13.7041 -0.150954 5.24767
RightHand -1.72751 12.269 -11.7037
LeftUpLeg -46.4405 -6.50718 7.22735
LeftLeg 82.0596 -0.559729 -2.75072
LeftFoot -9.63025 0.142225 -5.65913
LeftToes 3.91355e-005 3.11907e-005 -4.10385e-006
